<svg width="32" height="32" viewBox="0 0 32 32" fill="none" xmlns="http://www.w3.org/2000/svg">
  <defs>
    <linearGradient id="blueGradient" x1="0%" y1="0%" x2="100%" y2="100%">
      <stop offset="0%" stop-color="#0066ff"/>
      <stop offset="100%" stop-color="#4d94ff"/>
    </linearGradient>
  </defs>
  
  <!-- Background circle -->
  <circle cx="16" cy="16" r="15" fill="url(#blueGradient)" stroke="#ffffff" stroke-width="2"/>
  
  <!-- Letter B -->
  <path d="M10 8 L10 24 L18 24 C20.2 24 22 22.2 22 20 C22 18.9 21.5 17.9 20.7 17.2 C21.2 16.6 21.5 15.8 21.5 15 C21.5 13.3 20.2 12 18.5 12 L10 8 Z M13 11 L17.5 11 C18.3 11 19 11.7 19 12.5 C19 13.3 18.3 14 17.5 14 L13 14 L13 11 Z M13 17 L18 17 C18.8 17 19.5 17.7 19.5 18.5 C19.5 19.3 18.8 20 18 20 L13 20 L13 17 Z" fill="white"/>
</svg>
